<svg xmlns="http://www.w3.org/2000/svg" width="45" height="56" fill="none" viewBox="0 0 45 56">
  <path fill="#1A9CD9" d="M39.2 5.6c2.067 2.067.603 5.6-2.32 5.6a3.28 3.28 0 0 1-3.28-3.28c0-2.923 3.534-4.387 5.6-2.32Z"/>
  <path fill="#1A9CD9" d="M36.4 16.8A8.4 8.4 0 0 1 28 8.4 8.4 8.4 0 0 0 19.6 0H2.8C1.12 0 0 1.4 0 2.8v50.4C0 54.88 1.12 56 2.8 56H42c1.4 0 2.8-1.12 2.8-2.8v-28a8.4 8.4 0 0 0-8.4-8.4ZM11.2 47.6a2.8 2.8 0 1 1-5.6 0 2.8 2.8 0 0 1 5.6 0Zm0-11.2a2.8 2.8 0 1 1-5.6 0 2.8 2.8 0 0 1 5.6 0Zm0-11.2a2.8 2.8 0 1 1-5.6 0 2.8 2.8 0 0 1 5.6 0Zm25.2 25.2H19.6c-1.68 0-2.8-1.12-2.8-2.8 0-1.68 1.12-2.8 2.8-2.8h16.8c1.68 0 2.8 1.12 2.8 2.8 0 1.68-1.4 2.8-2.8 2.8Zm0-11.2H19.6c-1.68 0-2.8-1.12-2.8-2.8 0-1.68 1.12-2.8 2.8-2.8h16.8c1.68 0 2.8 1.12 2.8 2.8 0 1.68-1.4 2.8-2.8 2.8Zm0-11.2H19.6c-1.68 0-2.8-1.12-2.8-2.8 0-1.68 1.12-2.8 2.8-2.8h16.8c1.68 0 2.8 1.12 2.8 2.8 0 1.68-1.4 2.8-2.8 2.8Z"/>
</svg>
