<svg xmlns="http://www.w3.org/2000/svg" width="67" height="67" fill="none" viewBox="0 0 67 67">
  <path fill="#1A9CD9" d="M56.075 16.574c0 9.14-7.434 16.575-16.574 16.575-9.139 0-16.574-7.436-16.574-16.575S30.362 0 39.502 0c9.139 0 16.572 7.435 16.573 16.574Zm-10.848 7.249c-.651-.733-.503-1.863.141-2.603a7.957 7.957 0 0 0 1.08-1.603c.61-1.172.914-2.466.914-3.882 0-1.552-.365-2.945-1.096-4.178a7.653 7.653 0 0 0-2.945-2.923c-1.233-.7-2.604-1.05-4.11-1.05-1.492 0-2.862.35-4.11 1.05a7.82 7.82 0 0 0-2.969 2.923c-.73 1.233-1.095 2.626-1.095 4.178 0 1.568.365 2.977 1.095 4.225a7.87 7.87 0 0 0 2.97 2.9c1.247.7 2.617 1.05 4.109 1.05 1.27 0 2.572.368 3.385 1.342l.648.777c.28.335.695.53 1.132.53 1.272 0 1.947-1.503 1.102-2.454l-.251-.282Zm-1.153-8.088c0 1.066-.206 2.002-.616 2.809-.411.806-.982 1.43-1.712 1.872-.731.426-1.577.64-2.535.64-.96 0-1.812-.214-2.558-.64-.73-.441-1.301-1.066-1.712-1.872-.411-.807-.616-1.743-.616-2.809 0-1.065.205-1.994.616-2.786.41-.806.981-1.422 1.712-1.848.746-.427 1.599-.64 2.558-.64.959 0 1.804.213 2.535.64.73.426 1.3 1.042 1.712 1.848.41.792.616 1.72.616 2.786ZM12.646 42.58a1.83 1.83 0 0 0-2.498-.669l-9.233 5.33a1.831 1.831 0 0 0-.67 2.5l9.437 16.344a1.83 1.83 0 0 0 2.498.67l9.234-5.331a1.828 1.828 0 0 0 .67-2.499l-9.438-16.344Zm52.906-3.262a2.75 2.75 0 0 0-3.84-.624c-3.74 2.694-10.923 7.868-11.493 8.28a7.121 7.121 0 0 1-4.634 1.696h-9.402a1.963 1.963 0 1 1 0-3.925h10.055c1.478 0 2.66-1.23 2.6-2.71-.059-1.404-1.257-2.493-2.663-2.493h-5.388c-1.446 0-2.796-.641-3.96-1.5a12.556 12.556 0 0 0-7.478-2.455c-3.132 0-6.255 1.243-8.651 3.207-2.578 2.113-2.33 5.845-.664 8.731l2.477 4.29a10 10 0 0 0 8.66 4.999h9.288c2.958 0 5.87-.757 8.434-2.231.889-.51 1.84-1.124 2.871-1.865 4.321-3.104 13.156-9.553 13.162-9.557a2.751 2.751 0 0 0 .626-3.843Z"/>
</svg>
