<svg width="55" height="63" viewBox="0 0 55 63" fill="none" xmlns="http://www.w3.org/2000/svg">
<path d="M44.99 9.6C47.0566 11.6665 45.5929 15.2 42.6704 15.2C40.8587 15.2 39.39 13.7313 39.39 11.9196C39.39 8.99707 42.9235 7.53346 44.99 9.6Z" fill="#1A9CD9"/>
<path d="M42.19 20.8C37.5508 20.8 33.79 17.0392 33.79 12.4C33.79 7.76081 30.0292 4 25.39 4H8.59004C6.91004 4 5.79004 5.4 5.79004 6.8V57.2C5.79004 58.88 6.91004 60 8.59004 60H47.79C49.19 60 50.59 58.88 50.59 57.2V29.2C50.59 24.5608 46.8292 20.8 42.19 20.8ZM16.99 51.6C16.99 53.1464 15.7364 54.4 14.19 54.4C12.6436 54.4 11.39 53.1464 11.39 51.6C11.39 50.0536 12.6436 48.8 14.19 48.8C15.7364 48.8 16.99 50.0536 16.99 51.6ZM16.99 40.4C16.99 41.9464 15.7364 43.2 14.19 43.2C12.6436 43.2 11.39 41.9464 11.39 40.4C11.39 38.8536 12.6436 37.6 14.19 37.6C15.7364 37.6 16.99 38.8536 16.99 40.4ZM16.99 29.2C16.99 30.7464 15.7364 32 14.19 32C12.6436 32 11.39 30.7464 11.39 29.2C11.39 27.6536 12.6436 26.4 14.19 26.4C15.7364 26.4 16.99 27.6536 16.99 29.2ZM42.19 54.4H25.39C23.71 54.4 22.59 53.28 22.59 51.6C22.59 49.92 23.71 48.8 25.39 48.8H42.19C43.87 48.8 44.99 49.92 44.99 51.6C44.99 53.28 43.59 54.4 42.19 54.4ZM42.19 43.2H25.39C23.71 43.2 22.59 42.08 22.59 40.4C22.59 38.72 23.71 37.6 25.39 37.6H42.19C43.87 37.6 44.99 38.72 44.99 40.4C44.99 42.08 43.59 43.2 42.19 43.2ZM42.19 32H25.39C23.71 32 22.59 30.88 22.59 29.2C22.59 27.52 23.71 26.4 25.39 26.4H42.19C43.87 26.4 44.99 27.52 44.99 29.2C44.99 30.88 43.59 32 42.19 32Z" fill="#1A9CD9"/>
</svg>
