<svg xmlns="http://www.w3.org/2000/svg" width="29" height="36" fill="none" viewBox="0 0 29 36">
  <path fill="#363735" d="M14.264 17.524c.98 0 1.82-.343 2.518-1.03.698-.686 1.048-1.511 1.048-2.475 0-.964-.35-1.789-1.048-2.475a3.464 3.464 0 0 0-2.518-1.03c-.98 0-1.82.344-2.519 1.03-.698.686-1.047 1.511-1.047 2.475 0 .964.349 1.79 1.047 2.475a3.464 3.464 0 0 0 2.519 1.03Zm0 17.524c-4.785-4.001-8.358-7.718-10.72-11.15C1.18 20.467 0 17.29 0 14.37 0 9.989 1.434 6.498 4.301 3.9 7.17 1.3 10.49 0 14.264 0c3.774 0 7.095 1.3 9.962 3.9 2.868 2.598 4.302 6.089 4.302 10.47 0 2.92-1.182 6.097-3.544 9.528-2.363 3.432-5.936 7.149-10.72 11.15Z"/>
</svg>
