<svg xmlns="http://www.w3.org/2000/svg" width="38" height="39" fill="none" viewBox="0 0 38 39">
  <path fill="#fff" d="M33.515 29.594c0-.844-.287-1.259-1.07-1.515-2.51-.837-5.029-1.666-7.539-2.518-.558-.188-1.025-.113-1.5.219-.942.648-1.915 1.274-2.857 1.922-.226.15-.392.158-.633.03-1.59-.836-3.008-1.914-4.312-3.128-1.824-1.696-3.422-3.566-4.62-5.767-.16-.286-.136-.482.052-.746.648-.927 1.259-1.885 1.9-2.827.316-.46.392-.92.21-1.462-.859-2.533-1.695-5.073-2.547-7.614-.242-.708-.679-1.017-1.425-1.025-1.711 0-3.415-.008-5.126 0C1.681 5.186-.015 6.904 0 9.271c.03 4.124 1.048 8.013 2.902 11.684 3.377 6.687 8.436 11.662 15.182 14.941 3.61 1.757 7.44 2.699 11.466 2.699 1.945 0 3.61-1.342 3.874-3.257.03-.226.046-.46.06-.693v-.015c.008-.226.008-.46.008-.694l.023-1.779c0-.852.007-1.703 0-2.563ZM33.636 4.5C31.448 2.186 28.765.723 25.668.045c-1.026-.226-1.923.43-1.968 1.424-.037.822.483 1.433 1.417 1.636 1.75.392 3.377 1.078 4.772 2.201 4.01 3.204 5.608 7.358 4.749 12.43-.158.928.354 1.735 1.214 1.9.859.166 1.673-.392 1.824-1.319.158-1.002.256-2.012.324-2.563-.06-4.628-1.5-8.239-4.364-11.254Z"/>
  <path fill="#fff" d="M23.414 7.892c4.394 1.1 6.92 4.945 6.166 9.408-.158.942.354 1.74 1.214 1.9.89.165 1.68-.393 1.839-1.35.113-.694.173-1.402.256-2.103-.038-5.202-3.724-9.785-8.782-10.878-.972-.21-1.786.256-1.982 1.13-.196.875.324 1.652 1.289 1.893Z"/>
  <path fill="#fff" d="M21.71 12.724c2.073.58 3.076 2.126 2.759 4.266-.12.845.415 1.629 1.221 1.772.86.15 1.651-.37 1.817-1.214.083-.445.113-.904.166-1.357-.06-3.128-2.209-5.797-5.232-6.467-.927-.204-1.726.263-1.937 1.138-.189.829.309 1.613 1.206 1.862Z"/>
</svg>
