<svg xmlns="http://www.w3.org/2000/svg" width="298" height="58" fill="none" viewBox="0 0 298 58">
  <path fill="#1A9CD9" d="m34.686 2.923-8.754 9.102H9.179v14.686h25.507l-8.731 8.955H5.206A5.204 5.204 0 0 1 0 30.46V9.935a7.02 7.02 0 0 1 7.019-7.02h27.667v.008Zm26.958 0h-20.07a6.304 6.304 0 0 0-6.302 6.302v26.45h9.056V23.98h14.716v11.693h8.901V9.225a6.304 6.304 0 0 0-6.301-6.302Zm-2.376 12.218H43.95v-3.093h15.318v3.093Zm70.29-12.218V14.84h-14.416V2.923h-8.901v32.743h8.901V23.75h14.416v11.917h8.901V2.923h-8.901ZM97.487 15.141H79.353v-3.093h17.409l8.353-9.132H91.702V0H82.5v2.916h-5.576a5.807 5.807 0 0 0-5.809 5.808v10.19a4.781 4.781 0 0 0 4.783 4.781h18.766v3.016h-17l-8.554 8.955h13.398v3.016h9.202v-3.016h6.116a5.185 5.185 0 0 0 5.184-5.183v-9.834a5.511 5.511 0 0 0-5.508-5.508h-.015Z"/>
  <path fill="#99C137" d="m193.747 2.923-8.754 9.102H168.24v14.686h25.507l-8.731 8.955h-20.748a5.205 5.205 0 0 1-5.207-5.206V9.935a7.02 7.02 0 0 1 7.019-7.02h27.667v.008Zm26.958 0h-20.07a6.304 6.304 0 0 0-6.302 6.302v26.45h9.056V23.98h14.716v11.693h8.901V9.225a6.304 6.304 0 0 0-6.301-6.302Zm-2.376 12.218h-15.318v-3.093h15.318v3.093Zm70.29-12.218V14.84h-14.416V2.923h-8.901v32.743h8.901V23.75h14.416v11.917h8.901V2.923h-8.901Zm-32.071 12.218h-18.134v-3.093h17.409l8.353-9.132h-13.413V0h-9.202v2.916h-5.577a5.807 5.807 0 0 0-5.808 5.808v10.19a4.782 4.782 0 0 0 4.783 4.781h18.766v3.016h-17l-8.554 8.955h13.398v3.016h9.202v-3.016h6.116a5.184 5.184 0 0 0 5.183-5.183v-9.834a5.51 5.51 0 0 0-5.507-5.508h-.015Z"/>
  <path fill="#363735" d="M6.518 51.626c-.826.039-2.569-.038-3.587-.077-.231 0-.309.054-.309.386 0 .463.078 2.591.116 2.877.016.231-.015.27-.27.247-.17-.016-.67-.077-1.095-.077-.347 0-.84.054-.98.054-.192 0-.246-.016-.231-.286 0-.193.17-4.743.17-6.178 0-1.52-.155-5.8-.209-6.279-.015-.285 0-.347.232-.347.4 0 1.612.016 3.054.016 1.134 0 2.245-.078 2.646-.078 2.784 0 4.705 2.114 4.705 4.86 0 2.746-1.705 4.836-4.242 4.875v.007ZM5.46 43.76c-.247 0-2.823.115-2.839.231-.015.154-.054 3.055-.054 3.224 0 .324.04 2.075.04 2.36 0 .132.284.232 3.069.232 1.882 0 2.723-1.288 2.723-2.916 0-1.458-.749-3.131-2.94-3.131Zm11.902 3.431c-.015.208-.015.787-.038.918-.016.193-.077.231-.286.208-.4-.054-1.072-.115-1.52-.054-.693.093-1.226.579-1.264 1.073-.054.54-.015 3.455-.015 3.856 0 .401.077 1.365.077 1.612 0 .17-.039.247-.209.247-.208 0-.593-.038-.84-.038s-.579.015-.918.015c-.17 0-.209-.077-.209-.231 0-.232.04-4.297.04-4.59 0-1.15-.17-2.977-.425-3.726-.039-.13-.016-.23.092-.27.155-.023.81-.077.98-.115.231-.039.733-.154.848-.17.155-.038.17 0 .232.154.038.155.077.425.077.617.015.193.077.386.193.309.501-.401.98-.694 1.635-.864.386-.131 1.034-.131 1.48-.077.132.015.21.077.194.247-.039.193-.077.694-.093.864l-.03.015Zm8.462 3.749c-.193.062-4.76.478-5.8.555.17 1.25 1.611 2.013 2.63 1.96 1.265-.078 1.804-.386 2.607-.957.192-.131.308-.324.385-.231.039.077.286.54.363.67.092.155.27.517.308.58.054.076-.015.192-.13.308-.695.694-1.69 1.457-3.533 1.457-3.248 0-4.76-2.244-4.76-4.759 0-2.684 2.014-4.86 4.436-4.86 1.974 0 3.895 1.382 4.088 4.266.015.425-.131.903-.594 1.018v-.007Zm-3.757-3.479c-1.226.077-1.882 1.11-2.051 2.114-.054.308.015.347.501.323.517-.015 2.23-.13 3.147-.27.347-.053.578-.038.54-.285-.17-1.095-.995-1.959-2.129-1.882h-.008Zm.957-3.378c-.864.462-1.782.887-2.322 1.018-.092.023-.131-.054-.17-.131a3.758 3.758 0 0 1-.17-.579c-.038-.13-.038-.285-.038-.385 0-.078.054-.116.17-.17a14.859 14.859 0 0 0 1.674-.903c.655-.424 1.149-.825 1.535-1.133.13-.093.154-.116.27 0 .115.092.285.285.478.4.13.093.385.232.555.325.131.077.131.154 0 .27-.671.593-1.172.84-1.974 1.288h-.008Zm4.929 11.037c-.131 0-.232-.038-.209-.246.016-.209 0-.479-.015-.695a16.62 16.62 0 0 0-.077-.732c-.016-.132.054-.193.154-.17.285.038.98.062 1.365-.016.347-.077.957-.27 1.034-.879.077-.555-.247-.887-1.52-1.48-1.403-.656-1.689-1.937-1.342-3.07.347-1.135 1.443-2.037 3.263-2.037.116 0 .208-.023.27.116.077.208.17.555.247.81.077.231.115.478.154.655.015.116 0 .193-.17.209-.285.015-.594.053-.887.092-.54.077-.98.27-1.033.694-.077.502.13.71 1.558 1.458 1.303.694 1.635 2.09 1.226 3.34-.44 1.38-2.399 2.206-4.01 1.96l-.008-.009Zm10.69-1.226c-.016.231-.016.463-.039.555 0 .17 0 .247-.208.348-.478.208-1.288.362-2.422.362-1.419 0-2.229-.594-2.19-2.09.015-.71.077-4.412.077-4.682 0-.286-.039-.363-.232-.386-.154-.015-.732-.015-.84-.038-.093-.016-.132-.055-.155-.209a6.086 6.086 0 0 1-.038-.555c0-.131.015-.424.038-.579.016-.17.039-.208.232-.246.4-.039.887-.039.94-.193.04-.155-.015-.941-.015-1.404 0-.463-.015-1.265 0-1.52.016-.208.054-.285.247-.285.154 0 .617.062.903.093.246.038.694.17.863.192.132.016.232.054.209.209a59.07 59.07 0 0 0-.116 2.476c0 .285.054.27.247.27s2.036.023 2.244 0c.155-.016.193.038.155.208a3.329 3.329 0 0 0-.054.632c0 .232.015.733.015.864s-.092.193-.347.17a76.647 76.647 0 0 0-2.19-.093c-.193 0-.155 3.224-.155 3.494-.015.995.077 1.52.401 1.744.502.347 1.558.038 2.245-.078.193-.038.231 0 .231.155a8.507 8.507 0 0 0-.054.578l.008.008Zm10.004-3.456c0 1.574.154 3.51.231 4.204.016.286-.015.401-.231.401-.17 0-.478.016-.71.039-.208.015-.594.054-.748.077-.092.016-.208 0-.231-.077a5.284 5.284 0 0 1-.209-1.095c0-.209-.192-.132-.27-.078-.732.672-1.596 1.366-2.861 1.366-1.265 0-2.245-.594-2.993-1.381-.825-.84-1.25-2.152-1.25-3.301 0-1.38.517-2.723 1.404-3.664.772-.787 1.86-1.188 3.07-1.188 1.366 0 2.345.694 2.993 1.535.054.077.131.015.154-.17.039-.208.155-.94.27-.98.093-.022.656.093.864.132.193.023.694.154.787.17.131.038.131.092.093.308-.17.926-.363 2.553-.363 3.703Zm-4.528-2.823c-1.442 0-2.591 1.265-2.591 2.862 0 1.597 1.149 2.839 2.591 2.839 1.443 0 2.53-1.265 2.53-2.839 0-1.573-1.095-2.862-2.53-2.862Zm20.479 7.451c-.17 0-.694-.053-.864-.053-.193 0-.825.038-.956.038-.155 0-.193-.038-.193-.44 0-.285.054-2.206.054-2.568 0-.363 0-2.46-.016-2.646-.077-1.303-.463-1.728-1.689-1.728-1.033 0-2.129 1.188-2.129 1.728-.015.401-.038 2.46-.038 2.669 0 .671.077 2.553.077 2.761 0 .193-.039.247-.17.247-.17 0-.771-.054-.98-.054-.192 0-.77.039-.887.039-.154 0-.192-.054-.192-.27 0-.286.054-2.4.054-2.762v-2.206c0-1.573-.401-2.152-1.612-2.152s-2.307 1.134-2.307 1.597v2.746c0 .347.016 2.538.016 2.785 0 .192-.039.27-.209.27-.17 0-.593-.04-.84-.04s-.579.04-.903.04c-.154 0-.193-.078-.193-.247 0-.232.016-4.281.016-4.567 0-1.149-.116-2.36-.363-3.417-.038-.208-.038-.324.054-.347.17-.038.826-.092 1.019-.13.192-.04.786-.17.917-.21.093-.038.132.016.193.155.077.247.116.617.17.941.015.232.077.27.208.154.424-.44.995-.864 1.327-1.056.656-.324 1.342-.463 1.728-.463.694 0 1.419.231 1.882.517.424.247.694.733.864 1.25.44-.58 1.133-1.073 1.442-1.25.362-.209 1.095-.517 1.82-.517.725 0 1.558.231 2.013.594.617.517.841 1.342.841 2.036s-.015 1.998-.015 2.669.054 3.34.054 3.548c0 .27-.039.363-.209.363l.016-.024Zm9.302-1.265a4.366 4.366 0 0 1-3.286 1.458 4.47 4.47 0 0 1-3.324-1.48c-.772-.841-1.227-1.998-1.227-3.287.016-1.303.347-2.244 1.288-3.324a4.547 4.547 0 0 1 3.263-1.42c1.227 0 2.383.502 3.186 1.343.84.864 1.342 2.013 1.342 3.378 0 1.366-.478 2.476-1.25 3.325l.008.008Zm-3.278-6.108c-1.442 0-2.569 1.21-2.569 2.8 0 1.588 1.173 2.823 2.569 2.823s2.553-1.25 2.553-2.824c0-1.573-1.134-2.8-2.553-2.8Zm6.062 7.427c-.13 0-.231-.038-.208-.246.016-.209 0-.479-.015-.695a16.62 16.62 0 0 0-.077-.732c-.016-.132.054-.193.154-.17.285.038.98.062 1.365-.016.347-.077.956-.27 1.034-.879.077-.555-.247-.887-1.52-1.48-1.404-.656-1.689-1.937-1.342-3.07.347-1.135 1.442-2.037 3.263-2.037.115 0 .208-.023.27.116.077.208.17.555.246.81.078.231.116.478.155.655.015.116 0 .193-.17.209-.285.015-.594.053-.887.092-.54.077-.98.27-1.034.694-.077.502.132.71 1.559 1.458 1.303.694 1.635 2.09 1.226 3.34-.44 1.38-2.399 2.206-4.01 1.96l-.009-.009Zm11.478-10.135c-.864 0-1.304-.501-1.304-1.15 0-.647.54-1.172 1.303-1.172.764 0 1.289.54 1.289 1.173 0 .632-.324 1.15-1.288 1.15Zm1.04 5.762c0 .848.04 3.648.063 4.088-.024.154-.062.193-.17.193-.108 0-.617-.039-.903-.039-.27 0-.786.039-.917.039-.132 0-.193-.023-.193-.247-.023-.386.054-3.186.054-4.034 0-.771-.17-3.648-.209-4.296 0-.209 0-.27.193-.247.193 0 .671.092 1.057.092.386 0 .864-.092 1.057-.092.154 0 .17.077.154.27-.039.632-.17 3.51-.17 4.28l-.015-.007Zm10.09 4.319c-.116 0-.656-.038-.849-.038-.17 0-.88.015-.995.015-.13 0-.17-.077-.17-.27 0-.285.054-2.46.054-2.8 0-.339-.015-2.051-.015-2.244 0-1.497-.401-2.036-1.69-2.036-.994 0-2.19 1.187-2.19 1.519v5.623c0 .193-.023.231-.17.231-.13 0-.694-.038-.902-.038-.247 0-.594.015-.902.015-.154 0-.193-.077-.193-.208 0-.208.038-4.188.038-4.45 0-1.134-.192-2.8-.424-3.688-.038-.13-.038-.23.093-.246.131-.039.84-.116 1.018-.155.193-.038.918-.154 1.034-.17.092-.038.13 0 .154.132.038.154.092.694.115.956.04.247.093.286.286.093.247-.208.656-.579 1.095-.849.517-.308 1.227-.594 1.898-.594.94 0 1.689.286 2.152.733.462.44.71 1.072.71 1.743v2.762c0 .67.038 3.548.038 3.74 0 .132-.039.209-.193.209l.008.015Zm16.012 0c-.169 0-.694-.053-.864-.053-.192 0-.825.038-.956.038-.154 0-.193-.038-.193-.44 0-.285.062-2.206.062-2.568 0-.363 0-2.46-.023-2.646-.077-1.303-.463-1.728-1.69-1.728-1.033 0-2.128 1.188-2.128 1.728-.016.401-.039 2.46-.039 2.669 0 .671.077 2.553.077 2.761 0 .193-.038.247-.17.247-.169 0-.771-.054-.979-.054-.193 0-.771.039-.879.039-.155 0-.193-.054-.193-.27 0-.286.054-2.4.054-2.762v-2.206c0-1.573-.401-2.152-1.612-2.152s-2.307 1.134-2.307 1.597v2.746c0 .347.024 2.538.024 2.785 0 .192-.039.27-.209.27-.169 0-.594-.04-.848-.04-.255 0-.579.04-.903.04-.154 0-.192-.078-.192-.247l.015-4.567c0-1.149-.116-2.36-.362-3.417-.039-.208-.039-.324.054-.347.169-.038.825-.092 1.018-.13.193-.04.786-.17.918-.21.092-.038.131.016.192.155.078.247.116.617.17.941.016.232.077.27.208.154.425-.44.995-.864 1.327-1.056.656-.324 1.342-.463 1.728-.463.694 0 1.419.231 1.882.517.424.247.694.733.864 1.25.439-.58 1.133-1.073 1.442-1.25.363-.209 1.095-.517 1.82-.517.725 0 1.558.231 2.013.594.618.517.849 1.342.849 2.036s-.023 1.998-.023 2.669.061 3.34.061 3.548c0 .27-.038.363-.208.363v-.024Zm9.403-4.126c-.193.062-4.759.478-5.801.555.17 1.25 1.612 2.013 2.63 1.96 1.265-.078 1.805-.386 2.608-.957.192-.131.308-.324.385-.231.039.077.286.54.363.67.092.155.27.517.308.58.054.076-.023.192-.131.308-.694.694-1.689 1.457-3.533 1.457-3.247 0-4.759-2.244-4.759-4.759 0-2.684 2.014-4.86 4.436-4.86 1.974 0 3.895 1.382 4.088 4.266.023.425-.132.903-.594 1.019v-.008Zm-3.764-3.479c-1.227.077-1.882 1.11-2.052 2.114-.054.308.023.347.501.324.517-.016 2.229-.132 3.147-.27.347-.054.579-.039.54-.286-.17-1.095-.995-1.959-2.129-1.882h-.007Zm14.662 1.751c0 1.15.062 4.798.155 5.608.015.154.015.231-.093.231-.154.015-.81-.015-1.018-.015-.208 0-.579.054-.825.054-.155.015-.155-.71-.17-1.15 0-.192-.039-.231-.193-.038-.424.501-1.419 1.38-2.954 1.38-1.188 0-2.306-.555-3.054-1.365-.772-.84-1.211-2.129-1.211-3.355 0-1.227.462-2.592 1.265-3.471.771-.825 1.82-1.304 3.069-1.304 1.381 0 2.152.671 2.708 1.304.061.077.231.193.231-.039v-3.031c0-.956-.038-1.558-.054-1.805-.023-.231.039-.309.154-.309.155 0 .772-.053.995-.053.247 0 .594-.024.957-.062.208-.016.247.023.247.193 0 .231-.209 5.013-.209 7.235v-.008Zm-4.658-1.597c-1.52 0-2.607 1.327-2.607 2.916 0 1.42 1.056 2.839 2.607 2.839 1.55 0 2.537-1.404 2.537-2.878 0-1.704-1.249-2.877-2.537-2.877Zm7.69-2.63c-.864 0-1.304-.501-1.304-1.15 0-.647.54-1.172 1.304-1.172.763 0 1.288.54 1.288 1.173 0 .632-.324 1.15-1.288 1.15Zm1.041 5.762c0 .848.038 3.648.062 4.088-.024.154-.062.193-.17.193-.108 0-.617-.039-.902-.039-.27 0-.787.039-.918.039s-.193-.023-.193-.247c-.023-.386.054-3.186.054-4.034 0-.771-.17-3.648-.208-4.296 0-.209 0-.27.192-.247.193 0 .671.092 1.057.092.386 0 .864-.092 1.057-.092.154 0 .169.077.154.27-.039.632-.17 3.51-.17 4.28l-.015-.007Zm10.744-.309c0 1.574.155 3.51.232 4.204.015.286-.024.401-.232.401-.169 0-.478.016-.709.039-.209.015-.594.054-.749.077-.092.016-.208 0-.231-.077a5.225 5.225 0 0 1-.208-1.095c0-.209-.193-.132-.27-.078-.733.672-1.597 1.366-2.862 1.366-1.265 0-2.244-.594-2.992-1.381-.826-.84-1.25-2.152-1.25-3.301 0-1.38.517-2.723 1.404-3.664.771-.787 1.859-1.188 3.07-1.188 1.365 0 2.344.694 2.992 1.535.054.077.131.015.155-.17.038-.208.154-.94.27-.98.092-.022.655.093.863.132.193.023.695.154.787.17.131.038.131.092.093.308-.17.926-.363 2.553-.363 3.703Zm-4.527-2.823c-1.443 0-2.592 1.265-2.592 2.862 0 1.597 1.149 2.839 2.592 2.839 1.442 0 2.537-1.265 2.537-2.839 0-1.573-1.095-2.862-2.537-2.862Zm11.901 6.279c-.023.231-.023.463-.039.555 0 .17 0 .247-.208.348-.478.208-1.288.362-2.422.362-1.419 0-2.229-.594-2.19-2.09.015-.71.077-4.412.077-4.682 0-.286-.039-.363-.232-.386-.154-.015-.732-.015-.84-.038-.093-.016-.131-.055-.155-.209a4.212 4.212 0 0 1 0-1.134c.016-.17.039-.208.232-.246.401-.039.879-.039.941-.193.038-.155-.016-.941-.016-1.404 0-.463-.023-1.265 0-1.52.016-.208.054-.285.247-.285.155 0 .617.062.903.093.247.038.694.17.864.192.131.016.231.054.208.209a59.07 59.07 0 0 0-.116 2.476c0 .285.062.27.247.27s2.036.023 2.245 0c.154-.016.192.038.154.208a3.296 3.296 0 0 0-.054.632c0 .232.015.733.015.864s-.092.193-.347.17a76.614 76.614 0 0 0-2.19-.093c-.193 0-.155 3.224-.155 3.494-.015.995.077 1.52.401 1.744.502.347 1.558.038 2.245-.078.193-.038.231 0 .231.155-.023.092-.038.347-.054.578l.008.008Zm8.631-.093a4.355 4.355 0 0 1-3.286 1.458 4.47 4.47 0 0 1-3.324-1.48c-.771-.841-1.227-1.998-1.227-3.287.024-1.303.348-2.244 1.289-3.324a4.546 4.546 0 0 1 3.262-1.42c1.227 0 2.384.502 3.186 1.343.848.864 1.342 2.013 1.342 3.378 0 1.366-.478 2.476-1.25 3.325l.008.008Zm-3.278-6.108c-1.442 0-2.569 1.21-2.569 2.8 0 1.588 1.173 2.823 2.569 2.823s2.553-1.25 2.553-2.824c0-1.573-1.134-2.8-2.553-2.8Zm6.063 7.427c-.131 0-.232-.038-.209-.246.023-.209 0-.479-.015-.695-.023-.208-.062-.555-.077-.732-.023-.132.054-.193.154-.17.285.038.98.062 1.365-.016.347-.077.957-.27 1.034-.879.077-.555-.247-.887-1.52-1.48-1.403-.656-1.689-1.937-1.342-3.07.347-1.135 1.443-2.037 3.263-2.037.116 0 .208-.023.27.116.077.208.17.555.247.81.077.231.115.478.154.655.023.116 0 .193-.17.209a11.29 11.29 0 0 0-.879.092c-.54.077-.98.27-1.034.694-.077.502.132.71 1.558 1.458 1.304.694 1.636 2.09 1.227 3.34-.44 1.38-2.399 2.206-4.011 1.96l-.015-.009Zm18.257-1.033c-.787.748-1.767 1.21-2.877 1.21-1.111 0-1.975-.477-2.646-1.341-.062-.077-.247-.232-.247.038-.015.44-.015 3.44-.015 3.687 0 .232-.039.309-.208.309-.131 0-.617-.039-.864-.039-.232 0-.556.023-.841 0-.154 0-.208-.077-.208-.247 0-.231.038-4.188.038-7.196 0-1.38-.154-3.286-.285-4.127-.023-.154-.039-.247.077-.285.154-.039.825-.062 1.034-.093a14.22 14.22 0 0 1 1.033-.17c.093 0 .154.055.154.132.039.4.078.848.093 1.172.023.208.062.17.208.016.71-.803 1.558-1.343 2.646-1.343 1.211 0 2.229.517 2.916 1.212.887.879 1.442 2.306 1.442 3.532 0 1.404-.555 2.707-1.442 3.548l-.008-.015Zm-3.301-6.472c-1.327 0-2.422 1.25-2.422 2.9 0 1.559 1.018 2.9 2.499 2.9 1.226 0 2.476-1.226 2.476-2.915 0-1.535-1.111-2.877-2.553-2.877v-.008Zm13.428 6.186a4.355 4.355 0 0 1-3.286 1.458 4.469 4.469 0 0 1-3.324-1.48c-.772-.841-1.227-1.998-1.227-3.287.024-1.303.348-2.244 1.289-3.324a4.546 4.546 0 0 1 3.262-1.42c1.227 0 2.384.502 3.186 1.343.848.864 1.342 2.013 1.342 3.378 0 1.366-.478 2.476-1.25 3.325l.008.008Zm-3.278-6.108c-1.442 0-2.569 1.21-2.569 2.8 0 1.588 1.173 2.823 2.569 2.823s2.553-1.25 2.553-2.824c0-1.573-1.134-2.8-2.553-2.8Zm11.115-.502c-.023.208-.023.787-.039.918-.023.193-.077.231-.285.208-.401-.054-1.072-.115-1.52-.054-.694.093-1.226.579-1.265 1.073-.054.54-.015 3.455-.015 3.856 0 .401.077 1.365.077 1.612 0 .17-.038.247-.208.247-.208 0-.594-.038-.849-.038-.254 0-.578.015-.917.015-.17 0-.209-.077-.209-.231 0-.232.039-4.297.039-4.59 0-1.15-.17-2.977-.424-3.726-.039-.13-.016-.23.092-.27.154-.023.81-.077.98-.115.231-.039.732-.154.84-.17.155-.038.17 0 .232.154.038.155.077.425.077.617.023.193.077.386.193.309.501-.401.979-.694 1.635-.864.386-.131 1.034-.131 1.481-.077.131.015.208.077.193.247-.039.193-.077.694-.093.864l-.015.015Zm11.091 6.703c-.023.231-.023.463-.038.555 0 .17 0 .247-.209.348-.478.208-1.288.362-2.421.362-1.42 0-2.23-.594-2.191-2.09.015-.71.077-4.412.077-4.682 0-.286-.038-.363-.231-.386-.155-.015-.733-.015-.841-.038-.093-.016-.131-.055-.154-.209a4.207 4.207 0 0 1-.039-.555c0-.131.016-.424.039-.579.015-.17.038-.208.231-.246.401-.039.879-.039.941-.193.039-.155-.015-.941-.015-1.404 0-.463-.023-1.265 0-1.52.015-.208.054-.285.247-.285.154 0 .617.062.902.093.247.038.694.17.864.192.131.016.231.054.208.209a59.07 59.07 0 0 0-.116 2.476c0 .285.062.27.247.27s2.036.023 2.245 0c.154-.016.193.038.154.208a3.296 3.296 0 0 0-.054.632c0 .232.015.733.015.864s-.092.193-.347.17a76.614 76.614 0 0 0-2.19-.093c-.193 0-.154 3.224-.154 3.494-.016.995.077 1.52.401 1.744.501.347 1.558.038 2.244-.078.193-.038.232 0 .232.155-.024.092-.039.347-.054.578l.007.008Zm9.958-3.209c0 1.15.023 3.248.077 3.973.023.285-.015.324-.17.362-.115.039-.748 0-.918 0-.192 0-.748.016-.863.016-.155.015-.17 0-.209-.193-.038-.209-.054-.787-.054-.98 0-.247-.077-.308-.231-.154-.347.347-.879.771-1.288.94-.44.21-1.111.425-1.805.425-1.018 0-1.743-.285-2.152-.655-.424-.386-.671-.903-.825-1.597-.155-.733-.193-2.306-.17-2.993.039-1.303.231-2.784.347-3.286.062-.308.116-.362.309-.362.154 0 .594.038.786.038.193 0 .733-.023.841-.023.154 0 .208.062.17.363a26.057 26.057 0 0 0-.247 2.345c-.015.67-.054 2.19.062 2.9.131.879.594 1.558 1.936 1.558.879 0 2.283-1.096 2.283-1.743.038-.81.077-2.268.077-2.67 0-.4-.039-2.012-.039-2.282 0-.363.116-.463.386-.463.154 0 .44.023.656.023.216 0 .594-.023.902-.023.208 0 .27.092.27.324-.015.517-.116 2.9-.116 4.15l-.015.007Zm14.84-.308c-.054.13-.825 1.573-1.574 2.553-.655.88-1.056 1.442-1.403 1.92a.51.51 0 0 1-.232.193c-.092.039-.632.054-.786.054-.17 0-.671-.015-.826-.054-.092-.015-.154-.077-.247-.193-.208-.246-.879-1.133-1.573-2.074-.71-.957-1.442-2.13-1.481-2.268-.093-.208-.231-1.095-.231-1.82 0-.726.038-1.998.038-2.307 0-.193.077-.208.208-.208.116 0 .772.038.918.038.193 0 .826.024.918.024.154 0 .17.054.17.193a32.179 32.179 0 0 0-.077 1.766c0 .386.054 1.188.092 1.573.077.733 1.921 3.132 2.075 3.132.17 0 1.79-2.36 1.882-3.031.077-.517.077-1.227.077-1.612 0-.386-.115-1.535-.115-1.767-.024-.17 0-.231.131-.231.115 0 .748-.016.902-.016.17 0 .71-.038.825-.038.155-.023.193 0 .232.154.054.286.131 1.535.131 2.268 0 .733 0 1.558-.077 1.766l.023-.015Zm9.04.563c-.193.062-4.759.478-5.8.555.169 1.25 1.612 2.013 2.63 1.96 1.265-.078 1.805-.386 2.607-.957.193-.131.308-.324.385-.231.039.077.286.54.363.67.093.155.27.517.309.58.054.076-.024.192-.132.308-.694.694-1.689 1.457-3.532 1.457-3.247 0-4.759-2.244-4.759-4.759 0-2.684 2.013-4.86 4.435-4.86 1.974 0 3.895 1.382 4.088 4.266.023.425-.131.903-.594 1.019v-.008Zm-3.764-3.479c-1.227.077-1.882 1.11-2.052 2.114-.054.308.023.347.501.324.517-.016 2.23-.132 3.147-.27.348-.054.579-.039.54-.286-.169-1.095-.995-1.959-2.128-1.882h-.008Zm13.668 7.605c-.17 0-.672-.038-.903-.038-.17 0-.71.015-.864.015-.193 0-.231-.054-.231-.308 0-.286.061-2.36.061-2.723s-.061-2.399-.061-2.63c0-.903-.27-1.69-1.597-1.69-1.111 0-2.244 1.212-2.244 1.535 0 .309-.039 2.36-.039 2.762 0 .4.039 2.553.039 2.8 0 .193-.039.27-.193.27-.193 0-.671-.039-.887-.039-.216 0-.556.016-.864.016-.154 0-.208-.093-.208-.247V50.26c0-1.15-.193-7.374-.286-8.006-.023-.193-.023-.309.093-.348.131-.023.848-.061 1.057-.061.208 0 .956-.077 1.056-.116.155-.054.232-.015.232.154 0 .116-.039.995-.039 1.535-.023.656-.092 2.746-.092 3.764 0 .232.038.286.231.116a6.097 6.097 0 0 1 1.072-.864 3.746 3.746 0 0 1 1.936-.578c.787 0 1.52.208 1.975.578.578.463.917 1.227.917 2.075 0 .694-.015 1.96-.015 2.63 0 .671.039 3.356.039 3.572 0 .27-.024.347-.193.347l.008.007Zm3.702-10.983c-.864.462-1.782.887-2.322 1.018-.092.023-.131-.054-.169-.131a3.8 3.8 0 0 1-.17-.579c-.039-.13-.039-.285-.039-.385 0-.078.054-.116.17-.17a14.886 14.886 0 0 0 1.674-.903c.656-.424 1.149-.825 1.535-1.133.131-.093.154-.116.27 0 .115.092.285.285.478.4.131.093.386.232.555.325.131.077.131.154 0 .27-.671.593-1.172.84-1.974 1.288h-.008Zm.401 6.664c0 .771.077 3.741.062 4.073 0 .17-.039.208-.17.208-.116 0-.632-.039-.902-.039s-.71.039-.841.039c-.154 0-.208-.023-.208-.247 0-.247.038-3.263.038-4.034 0-.771-.169-3.895-.247-4.528-.023-.247 0-.324.232-.324.17 0 .655.116 1.033.116.378 0 .88-.116 1.073-.116.231 0 .231.054.208.309-.054.825-.27 3.78-.27 4.55l-.008-.007Zm8.346-3.379c-.039.17-.155.579-.193.695-.054.154-.154.13-.232.077-.54-.363-1.033-.517-1.673-.517-1.288 0-2.685 1.057-2.685 2.862 0 1.805 1.443 2.838 2.685 2.838.887 0 1.365-.347 1.673-.578.093-.077.17-.062.232.092.062.193.116.633.154.787.039.193.093.594.116.748.038.193 0 .209-.247.347-.386.209-1.25.556-2.191.556-2.437 0-4.566-2.052-4.566-4.798s1.975-4.798 4.551-4.798c1.057 0 1.782.309 2.399.671.154.093.208.131.169.27a5.41 5.41 0 0 1-.192.748Zm9.942 3.317c0 1.15.023 3.248.077 3.973.023.285-.015.324-.17.362-.115.039-.748 0-.917 0-.193 0-.749.016-.864.016-.155.015-.17 0-.209-.193-.038-.209-.054-.787-.054-.98 0-.247-.077-.308-.231-.154-.347.347-.879.771-1.288.94-.44.21-1.111.425-1.805.425-1.018 0-1.743-.285-2.152-.655-.424-.386-.671-.903-.825-1.597-.155-.733-.193-2.306-.17-2.993.039-1.303.231-2.784.347-3.286.062-.308.116-.362.309-.362.154 0 .594.038.786.038.193 0 .733-.023.841-.023.154 0 .208.062.17.363a26.057 26.057 0 0 0-.247 2.345c-.015.67-.054 2.19.062 2.9.131.879.594 1.558 1.936 1.558.879 0 2.283-1.096 2.283-1.743.038-.81.077-2.268.077-2.67 0-.4-.039-2.012-.039-2.282 0-.363.116-.463.386-.463.154 0 .44.023.656.023.216 0 .594-.023.902-.023.208 0 .27.092.27.324-.015.517-.116 2.9-.116 4.15l-.015.007Zm4.188-2.53c0 .772.077 6.317.077 6.68 0 .17-.038.208-.154.208-.116 0-.632-.038-.902-.038s-.772.023-.887.038c-.131.016-.17-.015-.17-.208 0-.247.039-5.916.039-6.68 0-.763-.17-5.353-.193-5.985-.016-.209 0-.27.193-.27.169.023.655.062 1.018.062.347 0 .84-.062 1.033-.062.17 0 .17.077.155.27-.062.694-.209 5.222-.209 5.985Zm9.31 5.646a4.355 4.355 0 0 1-3.286 1.458 4.47 4.47 0 0 1-3.324-1.48c-.771-.841-1.227-1.998-1.227-3.287.024-1.303.348-2.244 1.289-3.324a4.546 4.546 0 0 1 3.262-1.42c1.227 0 2.384.502 3.186 1.343.848.864 1.342 2.013 1.342 3.378 0 1.366-.478 2.476-1.25 3.325l.008.008Zm-3.286-6.108c-1.442 0-2.568 1.21-2.568 2.8 0 1.588 1.172 2.823 2.568 2.823 1.396 0 2.553-1.25 2.553-2.824 0-1.573-1.134-2.8-2.553-2.8Z"/>
</svg>
