<svg width="38" height="39" viewBox="0 0 38 39" fill="none" xmlns="http://www.w3.org/2000/svg">
<path d="M33.5148 29.5942C33.5148 28.7499 33.2283 28.3353 32.4444 28.0791C29.9342 27.2423 27.4164 26.4131 24.9062 25.5613C24.3484 25.3728 23.881 25.4482 23.4061 25.7799C22.4638 26.4282 21.4914 27.0539 20.5491 27.7021C20.323 27.8529 20.1572 27.8604 19.9159 27.7323C18.3254 26.8956 16.9082 25.8176 15.6041 24.604C13.7799 22.9079 12.1818 21.0384 10.9832 18.8373C10.8249 18.5508 10.8475 18.3548 11.036 18.091C11.6843 17.1638 12.2948 16.2064 12.9356 15.2642C13.2522 14.8043 13.3276 14.3445 13.1467 13.8018C12.2873 11.2689 11.4506 8.72857 10.5988 6.18821C10.3575 5.47962 9.92033 5.17056 9.17405 5.16302C7.46288 5.16302 5.75926 5.15548 4.0481 5.16302C1.68111 5.18563 -0.0149766 6.90434 9.97125e-05 9.27132C0.0302524 13.3947 1.0479 17.2844 2.90229 20.9555C6.27939 27.6418 11.3375 32.617 18.0842 35.8961C21.6949 37.6525 25.5243 38.5948 29.5497 38.5948C31.4946 38.5948 33.1605 37.253 33.4243 35.3383C33.4545 35.1122 33.4696 34.8785 33.4846 34.6448V34.6297C33.4922 34.4036 33.4922 34.1699 33.4922 33.9362L33.5148 32.1572C33.5148 31.3054 33.5223 30.4536 33.5148 29.5942Z" fill="white"/>
<path d="M33.6355 4.49976C31.4494 2.18555 28.7658 0.723142 25.6676 0.0447067C24.6424 -0.181438 23.7454 0.474382 23.7002 1.46942C23.6625 2.29108 24.1826 2.90167 25.1173 3.1052C26.8662 3.49719 28.4944 4.18316 29.889 5.30635C33.8993 8.51007 35.4974 12.6636 34.638 17.7368C34.4797 18.664 34.9923 19.4706 35.8517 19.6364C36.711 19.8022 37.5252 19.2444 37.6759 18.3172C37.8342 17.3146 37.9322 16.3045 38.0001 15.7542C37.9398 11.1258 36.5 7.51503 33.6355 4.49976Z" fill="white"/>
<path d="M23.4137 7.89197C27.8085 8.99255 30.3338 12.837 29.5799 17.2996C29.4216 18.2419 29.9342 19.0409 30.7936 19.1992C31.6831 19.3651 32.4746 18.8072 32.6329 17.8499C32.746 17.1564 32.8063 16.4478 32.8892 15.7467C32.8515 10.5454 29.1653 5.9622 24.1072 4.86917C23.1348 4.6581 22.3207 5.12547 22.1247 5.99989C21.9287 6.87432 22.4488 7.65075 23.4137 7.89197Z" fill="white"/>
<path d="M21.7101 12.7237C23.7831 13.3042 24.7856 14.8495 24.469 16.9903C24.3484 17.8346 24.8836 18.6186 25.6902 18.7618C26.5496 18.9126 27.3411 18.3924 27.5069 17.5482C27.5898 17.1034 27.62 16.6436 27.6728 16.1913C27.6125 13.063 25.4641 10.3944 22.4413 9.72354C21.5141 9.52001 20.715 9.98738 20.504 10.8618C20.3155 11.691 20.813 12.475 21.7101 12.7237Z" fill="white"/>
</svg>
