<svg width="29" height="30" viewBox="0 0 29 30" fill="none" xmlns="http://www.w3.org/2000/svg">
<path d="M25.2165 22.2669C25.2165 21.6317 25.001 21.3197 24.4112 21.1269C22.5225 20.4973 20.6281 19.8734 18.7394 19.2325C18.3197 19.0907 17.9681 19.1474 17.6108 19.397C16.9018 19.8848 16.1701 20.3555 15.4612 20.8433C15.291 20.9567 15.1663 20.9624 14.9848 20.866C13.788 20.2364 12.7217 19.4254 11.7405 18.5122C10.368 17.2361 9.16557 15.8295 8.26377 14.1733C8.14466 13.9578 8.16168 13.8104 8.30347 13.6118C8.79124 12.9142 9.25065 12.1939 9.73275 11.4849C9.97096 11.139 10.0277 10.793 9.89155 10.3846C9.24498 8.47894 8.61542 6.56757 7.97451 4.6562C7.79302 4.12306 7.46406 3.89052 6.90256 3.88484C5.61508 3.88484 4.33327 3.87917 3.04579 3.88484C1.26487 3.90186 -0.0112684 5.19501 7.50237e-05 6.97593C0.0227619 10.0784 0.788444 13.005 2.18369 15.7671C4.72462 20.7979 8.53034 24.5412 13.6065 27.0084C16.3233 28.33 19.2045 29.0389 22.2332 29.0389C23.6965 29.0389 24.95 28.0294 25.1485 26.5887C25.1712 26.4186 25.1825 26.2428 25.1939 26.0669V26.0556C25.1995 25.8854 25.1995 25.7096 25.1995 25.5338L25.2165 24.1953C25.2165 23.5544 25.2222 22.9135 25.2165 22.2669Z" fill="#363735"/>
<path d="M25.3073 3.38562C23.6625 1.64441 21.6434 0.544092 19.3123 0.0336373C18.541 -0.136514 17.866 0.356925 17.832 1.10559C17.8036 1.72381 18.195 2.18322 18.8983 2.33636C20.2141 2.63128 21.4392 3.14741 22.4885 3.9925C25.5058 6.40298 26.7082 9.52809 26.0617 13.3452C25.9426 14.0428 26.3282 14.6497 26.9748 14.7744C27.6214 14.8992 28.2339 14.4795 28.3474 13.7819C28.4665 13.0275 28.5402 12.2675 28.5913 11.8535C28.5459 8.37106 27.4626 5.65431 25.3073 3.38562Z" fill="#363735"/>
<path d="M17.6164 5.9382C20.923 6.76627 22.823 9.65885 22.2559 13.0165C22.1368 13.7255 22.5224 14.3267 23.169 14.4458C23.8383 14.5706 24.4338 14.1508 24.5529 13.4305C24.638 12.9087 24.6834 12.3756 24.7458 11.8481C24.7174 7.93464 21.9439 4.48624 18.1382 3.66384C17.4065 3.50503 16.794 3.85668 16.6465 4.5146C16.4991 5.17252 16.8904 5.7567 17.6164 5.9382Z" fill="#363735"/>
<path d="M16.3345 9.57367C17.8942 10.0104 18.6486 11.1731 18.4103 12.7839C18.3196 13.4191 18.7223 14.009 19.3292 14.1167C19.9757 14.2302 20.5713 13.8388 20.696 13.2036C20.7584 12.8689 20.7811 12.523 20.8208 12.1827C20.7754 9.8289 19.159 7.82111 16.8846 7.31633C16.187 7.16319 15.5858 7.51484 15.427 8.17276C15.2852 8.79665 15.6596 9.38651 16.3345 9.57367Z" fill="#363735"/>
</svg>
