<svg width="35" height="39" viewBox="0 0 35 39" fill="none" xmlns="http://www.w3.org/2000/svg">
<path d="M30.6414 8.23805C30.3689 8.10368 30.1035 7.95638 29.8464 7.7967C29.0988 7.32522 28.4133 6.76967 27.8047 6.14203C26.282 4.48013 25.7133 2.79417 25.5038 1.61375H25.5122C25.3373 0.633943 25.4096 0 25.4205 0H18.4852V25.5808C18.4852 25.9243 18.4852 26.2637 18.47 26.5991C18.47 26.6409 18.4658 26.6794 18.4633 26.7243C18.4633 26.7428 18.4633 26.762 18.4591 26.7813V26.7957C18.386 27.7136 18.0775 28.6002 17.5609 29.3777C17.0442 30.1551 16.3352 30.7995 15.4962 31.2542C14.6217 31.7287 13.6327 31.9777 12.6266 31.9764C9.39532 31.9764 6.77647 29.4631 6.77647 26.3592C6.77647 23.2553 9.39532 20.742 12.6266 20.742C13.2383 20.7414 13.8462 20.8333 14.4278 21.014L14.4362 14.2782C12.6707 14.0606 10.8771 14.1945 9.16849 14.6712C7.45993 15.148 5.87349 15.9574 4.50926 17.0483C3.31388 18.039 2.30892 19.2211 1.53961 20.5414C1.24685 21.0228 0.142268 22.9576 0.00850674 26.0976C-0.0756196 27.8799 0.485503 29.7263 0.753024 30.4895V30.5055C0.921277 30.9549 1.57326 32.4884 2.63577 33.7812C3.49254 34.8181 4.50479 35.7291 5.63992 36.4846V36.4686L5.65675 36.4846C9.01423 38.6609 12.7368 38.5181 12.7368 38.5181C13.3812 38.4932 15.5399 38.5181 17.9913 37.4099C20.7103 36.1813 22.2582 34.3509 22.2582 34.3509C23.2471 33.2572 24.0335 32.0108 24.5835 30.6652C25.2111 29.0916 25.4205 27.2042 25.4205 26.4499V12.8787C25.5047 12.9268 26.6252 13.6338 26.6252 13.6338C26.6252 13.6338 28.2396 14.6208 30.7584 15.2636C32.5654 15.721 35 15.8173 35 15.8173V9.24996C34.147 9.33823 32.4148 9.08144 30.6414 8.23805Z" fill="white"/>
</svg>
