<svg xmlns="http://www.w3.org/2000/svg" width="33" height="33" fill="none" viewBox="0 0 33 33">
  <path fill="#fff" d="M16.5 0C7.402 0 0 7.402 0 16.5c0 2.84.734 5.634 2.126 8.1l-2.1 7.489a.717.717 0 0 0 .864.89l7.816-1.936A16.51 16.51 0 0 0 16.5 33C25.598 33 33 25.598 33 16.5 33 7.402 25.598 0 16.5 0Zm8.3 22.322c-.353.977-2.046 1.87-2.86 1.989-.73.107-1.654.153-2.668-.166a24.837 24.837 0 0 1-2.415-.881c-4.249-1.813-7.024-6.037-7.236-6.316-.212-.28-1.73-2.268-1.73-4.326s1.094-3.07 1.483-3.49a1.566 1.566 0 0 1 1.13-.523c.283 0 .565.003.812.015.26.013.61-.099.954.718.353.838 1.2 2.896 1.305 3.106.106.21.176.454.035.733-.14.28-.21.454-.423.698-.212.245-.445.546-.635.734-.213.208-.433.434-.186.853.247.42 1.097 1.789 2.356 2.898 1.618 1.424 2.983 1.866 3.406 2.076.424.21.671.174.918-.105.247-.28 1.059-1.222 1.34-1.64.283-.418.566-.35.954-.21.39.14 2.472 1.151 2.895 1.36.423.21.706.315.812.49.106.173.106 1.011-.247 1.987Z"/>
</svg>
