<svg xmlns="http://www.w3.org/2000/svg" width="35" height="35" fill="none" viewBox="0 0 35 35">
  <path fill="#fff" d="M17.54 8.477c4.92 0 8.983 4.062 8.983 8.984 0 5-4.062 8.984-8.984 8.984-5 0-8.984-3.984-8.984-8.984 0-4.922 3.984-8.984 8.984-8.984Zm0 14.843c3.202 0 5.78-2.578 5.78-5.86a5.768 5.768 0 0 0-5.78-5.78c-3.282 0-5.86 2.578-5.86 5.78a5.851 5.851 0 0 0 5.86 5.86ZM28.944 8.164a2.1 2.1 0 0 1-2.11 2.11 2.1 2.1 0 0 1-2.108-2.11 2.1 2.1 0 0 1 2.109-2.11 2.1 2.1 0 0 1 2.11 2.11Zm5.938 2.11c.156 2.89.156 11.562 0 14.453-.156 2.812-.781 5.234-2.813 7.343-2.03 2.032-4.53 2.657-7.343 2.813-2.891.156-11.563.156-14.454 0-2.812-.156-5.234-.781-7.343-2.813C.898 29.96.273 27.54.117 24.727c-.156-2.891-.156-11.563 0-14.454C.273 7.461.898 4.961 2.93 2.93 5.04.898 7.46.273 10.273.117c2.891-.156 11.563-.156 14.454 0 2.812.156 5.312.781 7.343 2.813 2.032 2.03 2.657 4.53 2.813 7.343Zm-3.75 17.5c.937-2.266.703-7.735.703-10.313 0-2.5.234-7.969-.703-10.313-.625-1.484-1.797-2.734-3.281-3.28-2.344-.938-7.813-.704-10.313-.704-2.578 0-8.047-.234-10.312.703a6.026 6.026 0 0 0-3.36 3.281c-.937 2.344-.703 7.813-.703 10.313 0 2.578-.234 8.047.703 10.312a5.923 5.923 0 0 0 3.36 3.36c2.265.937 7.734.703 10.312.703 2.5 0 7.969.234 10.313-.703 1.484-.625 2.734-1.797 3.28-3.36Z"/>
</svg>
