<svg xmlns="http://www.w3.org/2000/svg" width="40" height="33" fill="none" viewBox="0 0 40 33">
  <path fill="#fff" d="M35.86 8.047V9.14c0 10.859-8.204 23.28-23.282 23.28-4.687 0-8.984-1.327-12.578-3.671.625.078 1.25.156 1.953.156 3.828 0 7.344-1.328 10.156-3.515-3.593-.078-6.64-2.422-7.656-5.703.547.078 1.016.156 1.563.156.703 0 1.484-.157 2.109-.313-3.75-.781-6.563-4.062-6.563-8.047v-.078c1.094.625 2.422.938 3.75 1.016a8.071 8.071 0 0 1-3.671-6.797c0-1.563.39-2.969 1.093-4.14a23.8 23.8 0 0 0 16.953 8.593 7.702 7.702 0 0 1-.234-1.875A8.202 8.202 0 0 1 27.656 0C30 0 32.11.938 33.672 2.578A17.325 17.325 0 0 0 38.828.547c-.625 1.953-1.875 3.515-3.594 4.531 1.641-.156 3.282-.625 4.688-1.25-1.094 1.64-2.5 3.047-4.063 4.219Z"/>
</svg>
