<svg width="31" height="31" viewBox="0 0 31 31" fill="none" xmlns="http://www.w3.org/2000/svg">
<path d="M15.2644 0C6.84778 0 9.85044e-05 6.8477 9.85044e-05 15.2643C9.85044e-05 17.8924 0.679026 20.4767 1.96653 22.7571L0.024654 29.6858C-0.0390577 29.9134 0.0226631 30.1576 0.187252 30.3269C0.314011 30.4576 0.486564 30.5286 0.663762 30.5286C0.716855 30.5286 0.770612 30.522 0.823041 30.5094L8.05432 28.7181C10.2623 29.9035 12.7491 30.5286 15.2644 30.5286C23.6809 30.5286 30.5286 23.6809 30.5286 15.2643C30.5286 6.8477 23.6809 0 15.2644 0ZM22.943 20.6506C22.6164 21.5545 21.0502 22.3795 20.2976 22.4903C19.622 22.5892 18.7672 22.6317 17.8288 22.337C17.26 22.1578 16.53 21.9202 15.5949 21.5214C11.664 19.8449 9.09694 15.9366 8.90049 15.6784C8.70471 15.4203 7.3004 13.5806 7.3004 11.6765C7.3004 9.77248 8.31249 8.83605 8.67219 8.44847C9.0319 8.06088 9.45598 7.96399 9.71746 7.96399C9.97895 7.96399 10.2398 7.96731 10.4687 7.97793C10.7096 7.98987 11.0328 7.887 11.3507 8.64226C11.6773 9.41742 12.461 11.3215 12.5579 11.5159C12.6562 11.7097 12.7212 11.936 12.5911 12.1942C12.461 12.4524 12.396 12.6136 12.1996 12.8399C12.0031 13.0663 11.7881 13.3443 11.6116 13.5182C11.4151 13.7113 11.2114 13.9204 11.4397 14.308C11.668 14.6956 12.4544 15.9625 13.6198 16.9885C15.1164 18.3066 16.3793 18.7154 16.7709 18.9092C17.1624 19.103 17.3914 19.0704 17.6197 18.8123C17.848 18.5534 18.5993 17.682 18.8601 17.2951C19.1209 16.9082 19.3824 16.9719 19.7421 17.1013C20.1018 17.2301 22.0284 18.1659 22.42 18.3597C22.8115 18.5534 23.073 18.6503 23.1713 18.8116C23.2695 18.9722 23.2695 19.7474 22.943 20.6506Z" fill="#363735"/>
</svg>
